<svg xmlns="http://www.w3.org/2000/svg" viewBox="0 0 697 156" role="img" aria-label="Ballstad International Stockfish and Mountain Camp"><title>Ballstad International Stockfish and Mountain Camp</title><path fill="#ffffff" fill-rule="evenodd" d="M152.5 41.6C151 41.7,148.3 41.8,146.5 41.6C144.7 41.5,142.8 41.1,141.5 40.7C140.2 40.2,139.4 39.6,138.5 38.9C137.6 38.2,136.4 37.1,136 36.5C135.6 35.9,135.4 36.2,136 35.5C136.6 34.8,138.7 32.5,139.5 32C140.3 31.5,140 32,140.5 32.3L142.5 34C143.2 34.4,143.3 34.5,144.5 34.8C145.7 35,148.2 35.4,149.5 35.5C150.8 35.5,151.6 35.5,152.5 35C153.4 34.5,154.6 33.2,155 32.5C155.4 31.8,154.9 31,154.7 30.5C154.6 30,154.4 29.9,154 29.5C153.7 29.1,153.6 28.7,152.5 28.3C151.4 27.9,148.7 27.4,147.5 27.1C146.3 26.9,146.2 27.1,145.5 26.9L143.5 26C143 25.9,142.8 26.1,142.5 26L141.5 25.1L140.5 24.9L139.5 24L138 22.5C137.8 22.1,138.1 21.8,137.9 21.5C137.7 21.2,137.2 21.7,137 20.5C136.9 19.3,136.8 16,137 14.5C137.2 13,137.8 12.7,138.5 11.8C139.2 10.9,140.8 9.5,141.5 9C142.2 8.5,142.2 9,142.5 8.8C142.8 8.6,142.8 8.3,143.5 8.1C144.2 7.8,145.2 7.4,146.5 7.3C147.8 7.1,150 7.1,151.5 7.2C153 7.4,154.7 7.9,155.5 8.1C156.3 8.4,156.2 8.8,156.5 8.9C156.8 9.1,156.8 8.7,157.5 9.1C158.2 9.6,160 10.9,160.4 11.5C160.9 12.1,160.7 11.8,160.2 12.5L157.4 15.5C156.7 16.1,156.8 16.1,156.5 16C156.2 15.9,156 15.3,155.5 15C155 14.7,154.5 14.3,153.5 14.1C152.5 13.8,150.8 13.6,149.5 13.5C148.2 13.5,146.5 13.7,145.5 14C144.5 14.3,144.1 15.1,143.7 15.5C143.2 15.9,143.1 16.2,143 16.5C142.9 16.8,142.7 17,143 17.5C143.3 18,143.9 18.9,144.6 19.5C145.4 20.1,146.5 20.6,147.5 20.8C148.5 21.1,149.3 21,150.5 21.2L154.5 22.3C155.3 22.6,155.2 22.9,155.5 23C155.8 23.1,155.8 22.7,156.5 23.1C157.2 23.5,159 24.8,159.7 25.5C160.4 26.2,160.6 26.3,160.9 27.5C161.2 28.7,161.4 31.2,161.4 32.5C161.4 33.8,161.2 34.7,161 35.5C160.8 36.3,160.5 36.8,160 37.5C159.4 38.2,158.2 39.3,157.5 39.8C156.8 40.4,156.3 40.6,155.5 40.9C154.7 41.2,154 41.4,152.5 41.6ZM574.5 41.6L571.5 41.8L568.5 41.6L564.5 40.9C563.7 40.6,563.8 40.3,563.5 40.1C563.2 40,562.8 40.1,562.5 39.9L561.5 39C561 38.7,560.2 38.4,559.5 37.9L557.2 35.5C556.5 34.6,555.7 33.3,555.3 32.5C554.9 31.7,555.1 31.2,554.9 30.5C554.7 29.8,554.2 30.2,554.1 28.5C553.9 26.8,553.8 22.7,554.1 20.5C554.4 18.3,555.4 16.8,556.1 15.5C556.8 14.2,557.6 13.7,558.5 12.8C559.4 11.9,560.5 10.8,561.5 10C562.5 9.3,563.3 8.8,564.5 8.3C565.7 7.8,567 7.4,568.5 7.2C570 7,572 7.1,573.5 7.3C575 7.4,576.7 7.9,577.5 8.1C578.3 8.4,578.2 8.7,578.5 8.9C578.8 9,578.8 8.7,579.5 9L582.5 11.2C583.4 11.9,584.1 12.8,584.7 13.5L586 15.5L587.2 18.5C587.6 19.2,587.7 18.3,588 19.5C588.2 20.7,588.7 23.8,588.7 25.5C588.7 27.2,588.3 28.5,588 29.5C587.7 30.5,587.2 31,587 31.5L586.8 32.5L586 33.5C585.8 33.8,586.2 33.8,585.6 34.5C585.1 35.2,583.4 37.2,582.5 38C581.6 38.7,581 38.7,580.5 39L579.5 40L577.5 40.9L574.5 41.6ZM23.5 40.8C20.2 41,7.8 41,4.5 41L3.5 41L2.8 40.5C2.6 40.3,2.5 44.7,2.5 39.5L2.5 9.5C2.5 4.3,2.5 8.8,2.7 8.5C2.8 8.2,1 8,3.5 7.9L17.5 7.8C20.7 7.9,21.5 8,22.5 8.2C23.5 8.3,23.2 8.8,23.5 8.9C23.8 9.1,23.8 8.5,24.5 9.1L27.9 12.5C28.5 13.2,27.9 13,28 13.5C28.2 14,28.8 14.7,28.9 15.5C29.1 16.3,29.1 17.5,28.8 18.5C28.6 19.5,28 20.6,27.5 21.4C27 22.3,25.4 22.7,25.7 23.5C25.9 24.3,28.3 25.8,28.9 26.5C29.5 27.2,29 27.2,29.2 27.5C29.4 27.8,29.8 27.7,30 28.5C30.2 29.3,30.2 31.3,30.2 32.5C30.2 33.7,30.4 34.5,29.9 35.5C29.5 36.5,28.2 37.8,27.4 38.5C26.7 39.2,26 39.7,25.5 39.9C25 40.2,24.8 39.9,24.5 40C24.2 40.2,26.8 40.7,23.5 40.8ZM69.5 41C68.4 41.1,64.7 41.2,63.5 40.9C62.3 40.7,62.7 40.2,62.2 39.5L61 36.5C60.8 35.8,61.2 35.9,61 35.5C60.7 35.1,62.1 34.3,59.5 34C56.9 33.8,48.1 33.8,45.5 34C42.9 34.3,44.3 35.1,44.1 35.5C43.8 35.9,44.4 35.6,44 36.5C43.6 37.4,42.7 40.2,41.5 41C40.3 41.7,37.5 41.1,36.5 41C35.5 40.9,35.5 40.7,35.3 40.5C35.1 40.3,35.1 40.2,35.3 39.5L37 36.5C37.3 35.8,37 35.8,37.2 35.5L38 34.5C38.1 34.2,37.9 33.8,38 33.5L38.7 32.5C38.9 32,38.8 31.3,39.2 30.5L40.8 27.5C41.1 26.8,40.8 26.8,41 26.5C41.2 26.2,41.5 26.3,41.8 25.5L43.1 21.5L45 17.5C45.3 16.7,45 16.8,45.1 16.5L46 15.5C46.2 15.2,45.9 14.8,46.1 14.5L47 13.5C47.1 13.2,46.8 13.2,47 12.5L48.2 9.5C48.6 8.7,48.4 8.2,49.5 8C50.6 7.7,53.5 7.9,54.5 7.9C55.5 7.9,55.3 7.9,55.5 8L56 8.5C56 8.7,55.9 9.2,56 9.5L57 10.5C57.2 10.8,56.9 10.8,57.2 11.5C57.6 12.2,58.4 13.3,58.9 14.5L60.1 18.5C60.5 19.3,60.8 19.2,60.9 19.5C61.1 19.8,60.8 20.2,61 20.5L61.9 21.5C62 21.8,61.9 22.2,62 22.5C62.1 22.8,62.2 22.3,62.7 23.5L65 29.5L67.6 34.5L69.1 38.5C69.5 39.3,69.8 39.2,70 39.5C70.1 39.8,70.1 40.2,70 40.5C69.9 40.8,70.6 40.9,69.5 41ZM99.5 40.8C95.9 41.1,82.2 41,78.5 41C74.8 41,77.7 41,77.5 40.9C77.3 40.8,77.2 45.7,77.1 40.5L76.9 9.5C76.9 4.2,76.9 8.8,77 8.5C77.1 8.2,76.6 7.9,77.5 7.8C78.4 7.7,81.5 7.6,82.5 7.8C83.5 7.9,83.2 8.2,83.3 8.5C83.5 8.8,83.6 5.2,83.6 9.5C83.6 13.8,83.2 30.2,83.4 34.5C83.5 38.8,81.8 34.9,84.5 35C87.2 35.2,96.9 35,99.5 35.2C102.1 35.4,100 35.8,100 36.5L100 39.5C99.9 40.2,103.1 40.6,99.5 40.8ZM129.5 41L108.5 41C104.8 41,107.7 41,107.5 40.9C107.3 40.8,107.2 45.7,107.1 40.5L107 9.5L107 8.5C107.1 8.2,106.6 8,107.5 7.9L112.5 7.9C113.5 8,113.4 8.2,113.7 8.5C113.9 8.8,113.9 5.2,113.9 9.5C113.9 13.8,113.6 30.2,113.7 34.5C113.8 38.8,111.9 35,114.5 35.1L129.5 35.1C132.1 35.1,130.1 35.3,130.3 35.5C130.5 35.7,130.7 35.8,130.8 36.5L130.8 39.5C130.7 40.2,130.6 40.3,130.4 40.5C130.2 40.7,133.2 40.9,129.5 41ZM182.5 40.6C182.3 41,182.3 40.9,181.5 41L177.5 41C176.6 40.9,176.4 44.9,176.2 40.5C175.9 36.1,176.1 18.9,176 14.5C175.9 10.1,177.1 14.1,175.5 13.9L166.5 13.8C164.9 13.8,166.2 13.9,166.2 13.5L166 11.5L166 8.5C166.1 7.9,162.3 7.9,166.5 7.8C170.7 7.6,187.2 7.5,191.5 7.7C195.8 7.8,192.1 7.7,192.3 8.5C192.4 9.3,192.4 11.7,192.4 12.5C192.3 13.3,192.2 13.3,192 13.5C191.9 13.7,192.9 13.9,191.5 13.9L183.5 13.9C182.1 14,183 10.4,182.9 14.5L182.9 38.5C182.8 42.8,182.7 40.2,182.5 40.6ZM227.5 41L222.5 41C221.5 40.9,222.2 41.6,221.6 40.5L218.5 34.5C217.8 33.4,220 34.1,217.5 34C215 33.9,206.1 33.6,203.5 34C200.9 34.4,202.3 35.9,202 36.5C201.8 37.1,202.2 36.8,202 37.5C201.7 38.2,200.9 40.1,200.5 40.7C200.1 41.2,200.5 40.9,199.5 41L194.5 41C193.6 40.9,194 40.9,194 40.5L194.2 38.5L195 36.5L197 32.5C197.4 31.7,197 31.8,197.2 31.5L198 30.5C198.1 30.2,197.7 30.3,198.1 29.5L200 25.5C200.3 24.7,199.9 24.8,200.1 24.5L200.9 23.5L201 22.5C201.1 22.2,201.2 22.8,201.7 21.5L204.3 14.5C204.8 13.2,204.9 13.8,205 13.5L205.1 12.5L206 11.5C206.1 11.2,205.9 10.8,206.1 10.5L207 9.5C207.2 9.2,207 8.7,207.1 8.5C207.1 8.3,206.4 8.1,207.5 8.1C208.6 8,212.3 7.9,213.5 8C214.7 8.1,213.5 6.8,214.5 8.8L219.8 20.5C220.7 22.8,220.1 22,220.3 22.5C220.5 23,220.9 23.2,221 23.5C221.1 23.8,220.9 24.2,221 24.5L222 25.5C222.2 25.8,221.9 26.2,222.1 26.5L222.9 27.5L223 28.5C223.2 28.8,223.4 28.8,223.8 29.5L225 32.5C225.2 33.2,224.8 33.2,225 33.5L225.9 34.5C226.1 34.8,225.8 35.2,226 35.5L226.9 36.5C227.1 36.8,226.8 37.2,227 37.5C227.2 37.8,227.7 38,227.9 38.5C228.1 39,228.3 40.1,228.2 40.5C228.2 40.9,228.5 40.9,227.5 41ZM252.5 40.8C249.3 41,239.3 41,236.5 41C233.7 41.1,235.7 41,235.5 40.9C235.3 40.8,235.2 45.7,235.1 40.5L235 9.5C235 4.2,234.9 8.8,235 8.5C235.1 8.2,233.8 8,235.5 7.9L245.5 7.8C248.3 7.8,251 7.9,252.5 8.1C254 8.3,254 8.8,254.5 9C255 9.2,255.2 8.9,255.5 9.1L256.5 10C256.8 10.2,256.9 9.8,257.5 10.3C258.1 10.7,259.4 11.6,260.4 12.5L263 15.5C263.6 16.3,263.6 16.7,264 17.5C264.3 18.3,264.8 18.7,264.9 20.5C265.1 22.3,265.1 26.7,264.9 28.5C264.8 30.3,264.3 30.7,264 31.5C263.7 32.3,263.5 32.7,262.9 33.5L260.5 36.3L258.5 38L256.5 39C256 39.3,256.2 39.6,255.5 39.9C254.8 40.2,255.7 40.6,252.5 40.8ZM291.5 40.7C291.3 40.9,291.3 40.9,290.5 41L286.5 41L285.5 40.8C285.3 40.8,285.2 45.7,285.2 40.5L285 9.5L285 8.5C285.1 8.2,284.6 8,285.5 7.9L290.5 7.9C291.5 8,291.6 3.2,291.8 8.5C292 13.8,292 34.1,291.9 39.5C291.9 44.9,291.7 40.4,291.5 40.7ZM328.5 41.1L324.5 41.2C323.7 41.1,323.7 41.1,323.5 40.9C323.3 40.8,323.4 41.1,323 40.5L320.9 37.5L318.1 34.5C317.5 33.7,317.4 33.2,316.9 32.5C316.4 31.8,316.1 31.8,315.1 30.5L310.7 24.5C309.5 22.9,308.1 21.4,307.5 20.9C306.9 20.4,307.1 18.2,307.1 21.5L307.1 40.5C307 43.7,306.8 40.9,306.5 41L305.5 41L301.5 40.9C300.8 40.8,301.2 45.6,301.1 40.5L300.8 10.5C300.8 5.2,300.8 8.9,300.9 8.5C301 8.1,300.7 7.9,301.5 7.9L305.5 8C306.3 8.1,305.8 7.9,306.5 8.6L309.8 12.5C310.5 13.5,310 13.2,311 14.5L315.8 20.5C316.9 21.8,316.4 21.7,317 22.5C317.7 23.3,319 24.5,319.7 25.5C320.5 26.5,321.1 28.1,321.5 28.6C321.9 29.1,321.7 28.7,321.8 28.5C322 28.3,322.1 30.8,322.2 27.5C322.3 24.2,322.1 11.8,322.3 8.5C322.5 5.2,322.6 8,323.5 7.9L327.5 7.9L328.5 8.1C328.7 8.2,328.8 3.3,328.9 8.5L329.1 39.5C329.1 44.8,329.1 40.2,329 40.5C328.9 40.8,329.2 41,328.5 41.1ZM350.5 41L345.5 41C344.6 40.9,345 44.9,344.9 40.5L344.9 14.5C344.8 10.1,344.7 14.2,344.5 14.1C344.3 14,345 13.9,343.5 13.9L335.5 13.9C334.1 13.8,335.2 13.9,335.1 13.5L335 11.5L335 8.5C335.1 7.9,331.3 7.9,335.5 7.8L360.5 7.8C364.8 7.9,361.2 7.7,361.4 8.5C361.6 9.3,361.7 11.7,361.6 12.5C361.6 13.3,361.4 13.3,361.2 13.5C361 13.7,361.9 13.9,360.5 14L352.5 13.9C351 14,351.5 10.2,351.3 14.5C351.1 18.8,351.4 35.2,351.4 39.5C351.4 43.8,351.5 40.2,351.3 40.5C351.1 40.8,351.5 40.9,350.5 41ZM391.5 40.9L368.5 41C364.6 40.9,368 40.7,367.8 40.5C367.7 40.3,367.6 44.5,367.5 39.5L367.6 10.5C367.6 5.3,367.6 8.9,367.7 8.5C367.9 8.1,364.9 7.9,368.5 7.8L389.5 7.9L390.5 7.9C390.8 8,391 7.7,391.1 8.5L391.1 12.5C391 13.4,393.1 13.6,390.5 13.9C387.9 14.1,378.2 13.8,375.5 13.9C372.8 14,374.5 13.4,374.3 14.5C374.2 15.6,374.3 19.5,374.5 20.6C374.7 21.7,373.2 21,375.5 21.1L388.5 21.1C390.8 21.1,389 21.3,389.1 21.5C389.3 21.7,389.6 22,389.6 22.5L389.7 24.5C389.6 25.2,389.5 26.1,389.4 26.5C389.2 26.9,390.8 26.9,388.5 27L375.5 27C373.2 27.1,374.7 26.4,374.5 27.5C374.3 28.6,374.3 32.3,374.3 33.5C374.3 34.7,374.2 34.2,374.4 34.5C374.6 34.8,372.7 34.9,375.5 35L391.5 35.1C394.2 35.2,391.8 35.3,391.9 35.5L392.1 36.5L392.2 38.5L392 40.5C391.8 40.9,395.4 40.8,391.5 40.9ZM426.5 41L420.5 41C419.3 40.9,420.6 41.9,419.5 40.7L414.1 33.5C413 32,413.4 32.1,413 31.5C412.6 30.9,412.6 30.3,411.5 30C410.4 29.8,407.4 29.9,406.5 30C405.6 30.1,406.1 28.9,406 30.5L406 39.5C406 41.2,406 40.3,405.9 40.5C405.8 40.7,406.4 40.8,405.5 40.9L400.5 41C399.5 40.9,399.6 40.8,399.4 40.5C399.1 40.2,399.2 44.7,399.1 39.5L399.1 9.5C399.1 4.3,399.3 8.5,399.5 8.2C399.7 8,397.5 7.9,400.5 7.9C403.5 7.9,414.2 7.9,417.5 8.1C420.8 8.3,419.5 8.7,420.5 9.3C421.5 9.8,422.9 10.8,423.6 11.5C424.4 12.2,424.6 12.8,425 13.5C425.3 14.2,425.6 14.2,425.7 15.5C425.9 16.8,426.1 20,425.9 21.5C425.8 23,425.6 23.4,424.9 24.5C424.1 25.6,422.2 27.3,421.5 27.9C420.8 28.5,420.9 28,420.5 28.2C420.1 28.5,418.9 28.8,419 29.5C419.1 30.2,420.4 31.7,421 32.5L422.9 34.5L425.9 38.5L426.9 40.5C427 40.9,427.6 40.9,426.5 41ZM463.5 40.6C463.3 40.9,463.3 41,462.5 41.1L458.5 41.1C457.7 41.1,460.2 44.1,457.5 40.8L442.5 21.4C439.9 18.2,442.1 21.3,442 21.5C441.9 21.7,441.7 19.5,441.7 22.5L441.9 39.5C441.9 42.5,441.8 40.3,441.6 40.5C441.3 40.7,441 40.9,440.5 41L438.5 41L435.5 41C434.9 40.9,435.1 45.9,435 40.5L435 8.5C435.1 3.1,434.8 8,435.5 7.9L439.5 7.9C440.4 8,440.1 7.7,440.9 8.5C441.6 9.3,443.3 11.5,444 12.5C444.7 13.5,444.4 13.7,445.1 14.5L447.8 17.5C448.5 18.3,448.5 18.8,449 19.5C449.5 20.2,449.7 19.9,450.9 21.5L456.5 29C457.5 30.2,456.9 31.9,457 28.5L457 8.5C457.1 5.1,456.6 8,457.5 7.9L462.5 7.9C463.5 8,463.1 4.4,463.3 8.5C463.4 12.6,463.3 27.3,463.4 32.5C463.5 37.7,463.7 38.1,463.7 39.5C463.8 40.9,463.7 40.3,463.5 40.6ZM504.5 40.8L498.5 41C497.4 40.9,498.2 41.1,497.8 40.5L496.1 37.5L495 34.5C494.7 33.9,496.9 34.1,494.5 34C492.1 33.9,483.1 33.8,480.5 34C477.9 34.3,479.4 35.1,479.1 35.5C478.9 35.9,479.4 35.6,479 36.5C478.5 37.4,477.7 40.2,476.5 41C475.3 41.7,472.6 41.1,471.5 41C470.4 40.9,470.4 40.7,470.2 40.5C470 40.3,470.1 39.8,470.2 39.5L471 38.5C471.2 38.2,471 37.8,471.1 37.5L472 36.5C472.1 36.2,471.7 36.5,472 35.5L474.1 30.5L477 24.5C477.7 22.8,478 21.3,478.3 20.5C478.6 19.7,478.9 19.8,479 19.5L479.1 18.5L480 17.5C480.1 17.2,479.9 16.8,480 16.5L481 15.5C481.1 15.2,480.6 15.7,481 14.5L483.6 8.5C484.1 7.4,484 8,484.5 7.9L486.5 7.9L490.5 8C491.2 8.1,490.9 8.3,491 8.5L491.1 9.5L492 10.5L492.1 11.5L492.9 12.5C493 12.8,492.7 12.7,493 13.5L494.9 17.5C495.2 18.3,494.7 17.8,495 18.5C495.3 19.2,496.1 19.8,496.8 21.5C497.5 23.2,498.3 26.2,499.3 28.5C500.3 30.8,501.9 33.5,502.8 35.5L504.8 40.5C505.1 41.4,505.6 40.8,504.5 40.8ZM521.5 40.9L516.5 41C515.5 40.9,515.5 40.7,515.3 40.5C515 40.3,515.1 43.8,515 39.5L515.1 14.5C515 10.2,515.9 14,514.5 13.9L506.5 13.9C505 13.9,505.9 13.7,505.7 13.5C505.5 13.3,505.3 13.2,505.2 12.5L505.2 9.5C505.2 8.8,505.2 8.8,505.4 8.5C505.6 8.2,502.1 7.9,506.5 7.8C510.9 7.6,527.3 7.7,531.5 7.8C535.7 7.9,531.9 7.5,532 8.5L531.9 13.5C531.8 14.4,533.1 13.9,531.5 13.9L522.5 13.9C520.9 14,522.1 10.2,522 14.5L522 39.5C522 43.8,522 40.3,521.9 40.5C521.8 40.7,522.4 40.8,521.5 40.9ZM544.5 41L540.5 41L539.5 40.9C539.3 40.8,539.2 45.9,539.1 40.5L539 8.5C539.1 3.1,538.6 8,539.5 7.9L544.5 7.9C545.5 8,545.5 3.2,545.7 8.5C546 13.8,545.9 34.2,545.8 39.5C545.8 44.8,545.6 40.3,545.4 40.5C545.2 40.7,545.3 40.9,544.5 41ZM624.5 40.9L619.5 41C618.6 40.9,619.4 41.1,618.8 40.5C618.3 39.9,618.7 40.8,616.1 37.5C613.6 34.2,605.7 23.3,603.5 20.7C601.3 18,603.1 18.4,603 21.5L603 39.5C603 42.7,603 40.3,602.8 40.5C602.5 40.7,601.9 40.9,601.5 41L600.5 41L597.5 41C596.8 40.9,596.6 40.7,596.4 40.5C596.2 40.3,596.2 44.7,596.1 39.5L596 9.5C596 4.3,596 8.7,596.1 8.5C596.2 8.3,595.6 8.2,596.5 8.1C597.4 8,600.5 7.9,601.5 8.1C602.5 8.2,601.4 7.7,602.5 8.9L607.9 15.5C609 16.9,608.5 16.8,609 17.5C609.5 18.2,609.4 17.7,610.9 19.5L617.5 28.4C618.8 30,618.3 29,618.5 29C618.7 29,618.9 31.9,618.9 28.5L618.8 8.5C618.9 5.1,618.5 8,619.5 7.9L624.5 7.9C625.4 8,624.9 8.1,625 8.5C625.1 8.9,625 5.3,625 10.5L625 39.5C625 44.5,625 40.3,624.9 40.5C624.8 40.7,625.4 40.8,624.5 40.9ZM666.5 40.5C666.4 40.9,666.5 40.9,665.5 41C664.5 41,661.6 41.2,660.5 41C659.4 40.8,659.3 39.9,659 39.5C658.7 39.1,659.1 38.8,658.9 38.5C658.8 38.2,658.3 38.2,658 37.5L656.9 34.5C656.6 33.9,656.7 34.2,656.5 34.1C656.3 34,658 34,655.5 34L641.5 34C639.1 34.1,641.1 34.3,641 34.5C640.9 34.7,641.2 34.8,641 35.5L639.8 38.5L638.5 40.7C638.1 41.1,638.3 40.9,637.5 41L633.5 41L632.5 40.9C632.3 40.8,632.2 40.7,632.1 40.5L632.2 39.5C632.3 39.2,632.5 39.3,632.8 38.5L634.2 34.5C634.5 33.7,634.8 33.8,635 33.5C635.1 33.2,634.9 32.8,635.1 32.5L636 31.5C636.1 31.2,635.9 30.8,636 30.5C636.1 30.2,636.3 30.8,636.8 29.5L639.3 22.5C639.8 21.2,639.8 21.8,640 21.5L640.2 20.5L641 19.5C641.1 19.2,640.9 18.8,641 18.5L641.7 17.5C641.9 17,641.6 17,642.2 15.5C642.9 14,644.8 9.5,645.5 8.3C646.2 7,645.7 8,646.5 7.9L650.5 8L651.5 8C651.9 8.1,652.2 7.8,652.7 8.5C653.1 9.2,653.2 10.5,654.1 12.5L658 20.5C659 22.8,659.7 25.3,660.2 26.5C660.7 27.7,660.8 27.2,661 27.5C661.2 27.8,660.9 27.8,661.2 28.5L662.8 31.5L664 34.5C664.2 35.2,663.8 35.2,664 35.5L664.9 36.5C665.1 36.8,664.8 37.2,665 37.5C665.2 37.8,665.7 38,666 38.5C666.2 39,666.6 40.1,666.5 40.5ZM696.5 40.9L674.5 41C670.7 40.9,674 45.7,673.9 40.5L673.7 9.5C673.7 4.2,673.7 8.8,673.9 8.5C674 8.2,673.7 8.1,674.5 8L678.5 8L679.5 8.1C679.7 8.2,679.8 4.1,679.9 8.5L680.1 34.5C680.2 38.9,680.3 34.8,680.5 34.9C680.7 35,678.8 35,681.5 35.1L696.5 35.2C699.1 35.2,696.8 35.1,696.8 35.5L697 37.5L696.9 40.5C696.8 41.1,700.2 40.8,696.5 40.9ZM20.9 20.5C21.3 20.2,21.7 20.2,21.8 19.5C22 18.8,22 17.2,22 16.5C22 15.8,21.9 15.8,21.6 15.5L20.5 14.4C20.1 14.2,21 14.1,19.5 14L11.5 13.8L9.5 13.9C9.1 14,9.1 13.4,9 14.5L9 20.5C9.1 21.6,7.8 21,9.5 21.1L19.5 21.1C21.4 21,20.5 20.8,20.9 20.5ZM251.4 34.5L253.5 33.7L254.5 33L256.8 30.5C257.2 29.9,256.9 29.8,257 29.5C257.1 29.2,257.5 29,257.6 28.5C257.8 28,257.9 27.7,258 26.5C258.1 25.3,258.1 22.7,258 21.5C257.8 20.3,257.2 20,257.1 19.5C256.9 19,257.6 19.2,257 18.5C256.4 17.8,254.4 15.7,253.5 15C252.6 14.3,252.2 14.5,251.5 14.3C250.8 14.1,251 14,249.5 14L242.5 14C241.2 14.1,242 11.1,242 14.5L242 34.5C242.1 37.9,241.8 34.9,242.5 35L246.5 35L249.5 35L251.4 34.5ZM417 23.5L418.7 21.5C419 21,419 21.2,419 20.5C419 19.8,419.2 18.4,418.9 17.5C418.7 16.6,417.9 15.5,417.5 15C417.1 14.5,416.8 14.4,416.5 14.3C416.2 14.1,417.2 14.1,415.5 14L406.5 13.9C404.9 14,406.1 12.9,406 14.5L406 23.5C406.1 25.2,405.3 24.3,406.5 24.4C407.7 24.6,411.8 24.3,413.5 24.3L416.5 24C417.1 23.9,416.6 23.9,417 23.5ZM575.8 34.5L577.5 33.6L578.6 32.5C579.2 31.8,580.4 30.3,580.8 29.5C581.2 28.7,581 28,581.1 27.5C581.3 27,581.5 27.2,581.7 26.5C581.8 25.8,582 24.3,581.9 23.5C581.8 22.7,581.2 22,581.1 21.5C580.9 21,581.2 21,581 20.5C580.8 20,580.6 19.3,580 18.5C579.4 17.7,578.2 16.2,577.3 15.5C576.4 14.8,576 14.3,574.5 14C573 13.7,570 13.7,568.5 13.9C567 14.1,566.6 14.2,565.5 15C564.4 15.8,562.9 17.4,562.2 18.5C561.4 19.6,561.2 20,561 21.5C560.8 23,560.8 26,561 27.5C561.2 29,561.6 29.6,562.1 30.5C562.5 31.4,562.6 31.9,563.5 32.6C564.4 33.4,566.2 34.5,567.5 35C568.8 35.5,570.3 35.4,571.5 35.4C572.7 35.4,573.8 35.2,574.5 35L575.8 34.5ZM57.6 28.5C57.6 27.9,57 26.2,56.7 25.5C56.5 24.8,56.2 24.8,56.1 24.5C55.9 24.2,56.6 24.9,56 23.5C55.4 22.1,53.3 16.7,52.5 15.9C51.7 15,51.6 17.1,51 18.5L48.9 24.5C48.3 26,47.5 26.8,47.2 27.5C47 28.2,47.2 28.3,47.3 28.5C47.3 28.7,46 28.7,47.5 28.7L56.5 28.9C58.2 28.9,57.5 29.1,57.6 28.5ZM216 28.5C216 28.3,216.1 27.8,216 27.5C215.9 27.2,215.7 27.7,215.2 26.5L213 20.5C212.5 19.3,212.5 20,212.3 19.5C212.1 19,212.1 18.1,211.8 17.5C211.5 16.9,210.8 16.1,210.5 15.9C210.2 15.7,210.3 15.7,210.1 16.5L208.9 20.5C208.5 21.3,208.2 21.2,208 21.5C207.9 21.8,208.1 22.2,208 22.5C207.8 22.8,207.5 22.7,207.2 23.5C206.8 24.3,206 26.7,205.9 27.5C205.8 28.3,204.9 28.3,206.5 28.5C208.1 28.8,213.9 29,215.5 29C217.1 29,215.9 28.7,216 28.5ZM492.2 28.5C492.2 28.1,492.2 27.5,491.8 26.5L490.1 22.5C489.8 21.7,490.3 22.2,490 21.5L488.4 18.5C488 17.7,488.1 16.9,487.9 16.5C487.8 16.1,487.8 15.9,487.5 16C487.2 16.2,486.8 16.1,486.2 17.5C485.6 18.9,484.4 23.2,483.9 24.5C483.4 25.8,483.3 25.2,483.1 25.5L483 26.5C482.8 26.8,482.3 27.2,482.2 27.5C482 27.8,480.8 28.3,482.4 28.5C483.9 28.7,489.9 28.9,491.5 28.9C493.1 28.9,492.1 28.9,492.2 28.5ZM653.6 28.5C655.1 28.4,654.2 28.3,654 27.5C653.7 26.7,652.6 24.8,652.1 23.5C651.5 22.2,651.2 20.3,650.9 19.5C650.6 18.7,650.4 19,650.2 18.5L649.7 16.5C649.6 16.1,649.7 16.3,649.5 16.3C649.3 16.3,648.8 16.2,648.5 16.5C648.2 16.9,648.7 16.7,648 18.5C647.2 20.3,644.6 25.9,644 27.5C643.4 29.1,642.9 28.2,644.5 28.4C646.1 28.5,652 28.6,653.6 28.5ZM21.9 34.5L23.7 32.5C24.1 32,24 31.8,24 31.5C24 31.2,24.1 31.1,23.8 30.5C23.6 29.9,23.1 28.7,22.5 28.2C21.9 27.6,21 27.3,20.5 27.1C20 26.9,21.3 27,19.5 27L9.5 27C7.8 27.1,9.1 26.2,9 27.5L9 34.5C9.1 35.8,7.8 34.9,9.5 35L19.5 35.1C21.5 35,21.1 34.9,21.5 34.9C21.9 34.8,21.6 34.9,21.9 34.5ZM16.5 86.6C15.2 87.2,14.2 87.1,12.5 87.2C10.8 87.2,7.8 87,6.5 86.8C5.2 86.6,5.2 86.4,4.5 86L2.5 84.5L1.4 83.5C1.1 83.2,1.1 82.8,1 82.5C.9 82.2,.5 82.1,.9 81.5C1.3 80.9,2.9 79.5,3.5 79.2C4.1 78.8,4 79.1,4.5 79.4C5 79.7,5.7 80.4,6.5 80.9C7.3 81.3,8.3 81.8,9.5 82C10.7 82.2,12.5 82.1,13.5 81.9C14.5 81.7,15.1 81.2,15.5 80.8C15.9 80.4,16.1 80,16.2 79.5L16.1 77.5C16 77,15.8 76.9,15.4 76.5C14.9 76.1,14.3 75.4,13.5 75.1C12.7 74.9,11.8 75.1,10.5 74.8L5.5 73.6C4.3 73.1,4.2 73,3.5 72.3C2.8 71.6,1.6 70.1,1.2 69.5C.8 68.9,1 69.5,1 68.5C1 67.5,.9 64.7,1.1 63.5C1.3 62.3,1.8 62,2.2 61.5C2.6 61,2.6 60.8,3.5 60.3C4.4 59.7,6 58.5,7.5 58.1C9 57.8,11.2 58,12.5 58L15.5 58.3C16.2 58.4,16.2 58.8,16.5 59C16.8 59.1,16.9 58.7,17.5 59.1C18.1 59.5,19.9 60.9,20.3 61.5C20.8 62.1,20.7 61.9,20.4 62.5L18.5 64.8C18 65.3,18.3 65.3,17.5 65C16.7 64.8,14.7 63.7,13.5 63.4C12.3 63,11.5 63,10.5 63.1C9.5 63.2,8.2 63.8,7.5 64.2C6.8 64.6,6.6 65.1,6.4 65.5C6.1 65.9,5.7 65.9,6 66.5C6.4 67.1,7.9 68.6,8.5 69C9.1 69.4,9 68.9,9.5 69.1C10 69.2,10.7 69.8,11.5 70C12.3 70.2,13.5 69.9,14.5 70.1C15.5 70.3,16.6 70.7,17.5 71.1C18.4 71.5,18.9 71.8,19.6 72.5C20.3 73.2,21.5 74.5,21.9 75.5C22.3 76.5,22.2 77.5,22.2 78.5C22.2 79.5,22.2 80.6,21.9 81.5C21.6 82.4,21.4 82.9,20.5 83.7C19.6 84.6,17.8 86.1,16.5 86.6ZM36.5 86.8C35.8 87,33.2 86.9,32.5 86.9C31.8 86.8,32.2 86.7,32 86.5C31.9 86.3,31.8 89.2,31.7 85.5C31.7 81.8,31.7 68.1,31.5 64.5C31.3 60.9,31.7 63.9,30.5 63.8C29.3 63.7,25.6 63.9,24.5 63.9C23.4 63.9,24.2 63.9,24.1 63.5L24 61.5L24.1 58.5C24.2 57.9,21.3 58.2,24.5 58.1L43.5 58.1C46.8 58.1,44.2 58,44.5 58.2C44.8 58.4,45.3 58.8,45.4 59.5C45.6 60.2,45.5 61.8,45.3 62.5C45.2 63.2,45.8 63.4,44.5 63.7C43.2 63.9,38.7 63.7,37.5 63.9C36.3 64,37.1 60.9,37 64.5L37 85.5C36.9 89.2,37.2 86.6,36.5 86.8ZM66.5 86.6C65.2 87,63.2 87.1,61.5 87.2C59.8 87.2,57.5 86.9,56.5 86.7C55.5 86.5,55.8 86.1,55.5 86C55.2 85.9,55.2 86.2,54.5 85.8C53.8 85.4,52.4 84.4,51.5 83.5C50.6 82.6,49.6 81.3,49 80.5C48.5 79.7,48.4 79.7,48.1 78.5L47.1 73.5C47 72.2,47.1 71.7,47.2 70.5L48.1 66.5C48.4 65.5,48.2 65.6,49.1 64.5C50 63.4,52.1 61.1,53.5 60.1C54.9 59,55.7 58.5,57.5 58.2C59.3 57.9,62.8 57.9,64.5 58.1C66.2 58.3,66.3 58.4,67.5 59.2C68.7 59.9,70.8 61.4,71.9 62.5C73 63.6,73.6 64.8,74 65.5C74.4 66.2,74 66.2,74.1 66.5C74.3 66.8,74.8 67,74.9 67.5C75.1 68,74.9 68.8,75 69.5L75.6 71.5C75.7 72.2,75.8 72.8,75.7 73.5L75.1 75.5C75 76.2,75.2 76.7,75 77.5L73.7 80.5C73.3 81.3,73.2 81.4,72.5 82.2C71.8 82.9,70.5 84.3,69.5 85C68.5 85.7,67.8 86.3,66.5 86.6ZM98.5 86.9L95.5 87.2L92.5 87.2L89.5 86.9C88.7 86.7,88.2 86.3,87.5 86C86.8 85.7,86.2 85.4,85.5 84.8C84.8 84.2,83.8 83.4,83 82.5C82.3 81.6,81.5 80.3,81 79.5C80.5 78.7,80.4 79,80.2 77.5L79.9 70.5C79.9 68.8,80 68.3,80.2 67.5C80.4 66.7,80.6 66.3,81.1 65.5L83.1 62.5C83.7 61.8,83.8 61.7,84.5 61.1L87.5 59.2C88.5 58.7,88.8 58.3,90.5 58.1C92.2 57.9,95.7 57.8,97.5 58.1C99.3 58.5,100.4 59.3,101.5 60.1C102.6 60.8,103.7 61.9,104 62.5C104.3 63.1,104 62.9,103.4 63.5C102.9 64.1,101.2 65.7,100.5 66C99.8 66.3,99.8 65.3,99.5 65.1L98.5 64.8C98.2 64.6,98.2 64.2,97.5 64C96.8 63.8,95.7 63.6,94.5 63.6C93.3 63.6,91.5 63.8,90.5 64C89.5 64.3,89.1 64.6,88.5 65C87.9 65.4,87.4 65.9,87 66.5C86.6 67.1,86.3 67.5,86.1 68.5C85.9 69.5,85.6 71.2,85.6 72.5C85.6 73.8,86 75.7,86.2 76.5C86.4 77.3,86.7 77.2,86.8 77.5C87 77.8,86.6 77.9,87 78.5C87.5 79.1,88.6 80.2,89.5 80.8C90.4 81.4,91.5 81.8,92.5 82C93.5 82.2,94.5 82.2,95.5 82C96.5 81.8,97.7 81.2,98.5 80.7C99.3 80.3,99.7 79,100.5 79.1C101.3 79.3,102.9 81,103.5 81.5C104.1 82.1,104 82.2,104 82.5C104 82.8,103.9 83.2,103.6 83.5L102.5 84.1C102 84.5,101.2 85.5,100.5 86C99.8 86.5,99.3 86.7,98.5 86.9ZM131.5 87C130.5 87,127.6 87.1,126.5 86.9C125.4 86.6,125.4 85.9,125.1 85.5C124.9 85.1,126 86.2,124.7 84.5L117.6 75.5C116.2 73.9,116.9 74.8,116.5 75C116.1 75.2,115.7 75.9,115.3 76.5C115 77.1,114.7 77,114.5 78.5C114.4 80,114.6 84.2,114.5 85.5C114.5 86.8,114.3 86.3,114.1 86.5C114 86.7,113.9 86.9,113.5 86.9L111.5 87L109.5 86.9C109.1 86.8,109.2 87.1,109.1 86.5C109 85.9,108.9 88,108.9 83.5L108.7 59.5C108.8 55.3,108.9 58.7,109.1 58.5C109.2 58.3,108.8 58.2,109.5 58.1L113.5 58.1C114.3 58.2,113.9 58.3,114 58.5C114.2 58.7,114.4 57.7,114.4 59.5L114.2 69.5C114.2 71.2,114.3 69.8,114.5 69.8C114.7 69.7,114.6 70,115.5 69.2L120 64.5C121.1 63.2,121.2 62.6,122.1 61.5C123.1 60.4,124.1 58.8,125.5 58.2C126.9 57.6,129.6 58.1,130.5 58.1C131.4 58.2,131 58.3,131.1 58.5C131.2 58.7,132 58.3,131 59.5L125.3 65.5C123.6 67.3,121 68.7,121 70.5C121 72.3,123.1 74,125 76.5L132.2 85.5C133.4 87.2,132.5 86.3,132.3 86.5C132.2 86.7,132.5 86.9,131.5 87ZM141.5 86.8C140.8 87,138.3 87,137.5 86.9C136.7 86.9,136.9 86.7,136.6 86.5C136.4 86.3,136.3 90,136.2 85.5L136.1 59.5C136.2 55,136.3 58.9,136.5 58.7C136.7 58.4,134.5 58.2,137.5 58.1L154.5 58.1C157.5 58.2,155.3 58.2,155.5 58.4C155.7 58.6,155.9 59.2,156 59.5L156 60.5L156 62.5C155.9 63,155.7 63.1,155.5 63.3C155.3 63.5,156.5 63.6,154.5 63.6L143.5 63.6C141.5 63.6,142.8 63.5,142.5 63.7C142.2 63.8,142.1 63.5,142 64.5L142 69.5C142 70.5,140.4 70.5,142.5 70.7C144.6 70.9,152.4 70.7,154.5 70.9C156.6 71,155 70.9,155 71.5L155 74.5C154.9 75.1,156.6 74.9,154.5 75L142.5 75C140.4 75.1,142.1 73.8,142 75.5L142 85.5C141.9 87.4,142.2 86.5,141.5 86.8ZM165.5 86.9L161.5 86.9C160.8 86.8,161.2 91.1,161.1 86.5L161 59.5C161 54.8,161 58.7,161.1 58.5C161.2 58.3,160.8 58.2,161.5 58.1L165.5 58.1C166.2 58.2,165.8 58.3,165.9 58.5C166 58.7,166.1 55,166.1 59.5L166.2 85.5C166.1 90,166.1 86.3,165.9 86.5C165.8 86.7,166.2 86.9,165.5 86.9ZM189.5 86.9C188.3 87.1,186.2 87.3,184.5 87.3C182.8 87.3,180.8 87.2,179.5 87C178.2 86.7,177.6 86.5,176.5 85.8C175.4 85,173.5 83.2,172.9 82.5C172.3 81.8,172.8 81.9,173.1 81.5L174.5 80.1L175.5 79.2C175.8 79,175.8 78.7,176.5 79C177.2 79.3,178.3 80.3,179.5 80.8C180.7 81.3,182.3 81.8,183.5 82C184.7 82.2,185.8 82.1,186.5 82C187.2 81.9,187.2 81.8,187.5 81.6L188.5 81C188.9 80.7,189.7 80.1,189.9 79.5C190.1 78.9,190.1 78.1,189.8 77.5C189.6 76.9,189.1 76.4,188.5 76C187.9 75.6,187.2 75.2,186.5 75C185.8 74.8,185.2 75,184.5 74.9L182.5 74.2C181.5 74,179.7 73.9,178.5 73.5C177.4 73.1,176.3 72.5,175.5 71.8C174.7 71.1,174.4 70.2,174 69.5L173.1 67.5C173 67,173 67,173.1 66.5L173.3 64.5C173.5 64,173.8 63.8,174 63.5C174.1 63.2,173.5 63.2,174.1 62.5L177.5 59.2C178.2 58.6,178.2 59.2,178.5 59C178.8 58.8,178.7 58.5,179.5 58.3C180.3 58.1,182 57.9,183.5 57.9C185 57.9,187.2 57.9,188.5 58.2C189.8 58.4,190.6 58.8,191.5 59.4C192.4 59.9,193.6 61,194 61.5C194.4 62,194.2 62,193.9 62.5L192.5 64.3L191.5 65C191.2 65.1,191.3 65.2,190.5 64.9C189.7 64.6,187.7 63.5,186.5 63.2C185.3 62.9,184.5 62.9,183.5 63C182.5 63.1,181.2 63.6,180.5 64C179.8 64.4,179.2 64.9,179 65.5C178.8 66.1,179 67.1,179.1 67.5C179.1 67.9,179.1 67.7,179.5 67.9C179.9 68.2,180.8 68.8,181.5 69C182.2 69.2,182.8 69,183.5 69.1C184.2 69.3,184.7 69.8,185.5 70C186.3 70.2,187.5 70,188.5 70.2C189.5 70.4,190.4 70.5,191.5 71.2C192.6 71.9,194.3 73.6,195 74.5C195.7 75.4,195.7 75.8,195.9 76.5C196 77.2,196 77.8,196 78.5L195.8 80.5C195.7 81,195.3 81.2,195.1 81.5C195 81.8,195.5 81.8,194.9 82.5L191.5 85.9C190.6 86.7,190.7 86.7,189.5 86.9ZM225.5 86.9L221.5 87C220.7 86.9,221.1 86.7,220.9 86.5C220.7 86.3,220.6 87.3,220.6 85.5C220.5 83.7,220.8 77.3,220.6 75.5C220.4 73.7,221.5 74.9,219.5 74.7C217.5 74.6,210.5 74.7,208.5 74.8C206.5 74.8,207.7 74.9,207.5 75C207.3 75.2,207.1 73.8,207.1 75.5L207.2 85.5C207.2 87.3,207.1 86.3,207 86.5C206.9 86.7,207.3 86.9,206.5 86.9L202.5 86.8C201.8 86.8,202.2 91.1,202.2 86.5L202 59.5C202 54.8,202 58.7,202.1 58.5C202.2 58.3,201.8 58.2,202.5 58.1L206.5 58.1C207.2 58.1,206.8 56.6,206.9 58.5L207 69.5C207.1 71.4,207.3 69.9,207.5 70L208.5 70L219.5 70C221.5 69.9,220.3 71.4,220.5 69.7C220.7 67.9,220.4 61.4,220.4 59.5C220.5 57.6,220.6 58.7,220.8 58.5C221 58.3,220.9 58.1,221.5 58L224.5 58.1C225.2 58.2,225.6 53.9,225.8 58.5C226.1 63.1,226 80.8,226 85.5C226 90.2,226 86.3,225.9 86.5C225.8 86.7,226.2 86.8,225.5 86.9ZM270.5 87C269.8 87.1,267.4 87.2,266.5 87C265.6 86.7,265.4 85.9,265.1 85.5C264.9 85.1,265.2 84.8,265 84.5L264.1 83.5C263.9 83.2,264.1 82.8,264 82.5L263.5 81.7C263.3 81.4,264.7 81.1,262.5 81L250.5 81C248.4 81.1,250.1 81.3,250 81.5C249.9 81.7,250 82.2,249.9 82.5L249 83.5C248.8 83.8,249.1 84.2,248.9 84.5L248 85.5C247.8 85.9,248.3 86.6,247.5 86.8C246.7 87.1,244.3 87,243.5 86.9C242.7 86.9,242.9 86.9,242.8 86.5C242.7 86.1,242.9 85,243 84.5C243.1 84,243.2 84.5,243.6 83.5L245.3 78.5C245.7 77.5,245.9 77.8,246 77.5L246.1 76.5L246.9 75.5C247.1 75.2,246.8 74.8,247 74.5C247.2 74.2,247.7 74,248 73.5C248.2 73,247.9 72.7,248.3 71.5L250.2 66.5C250.7 65.5,250.9 65.8,251 65.5C251.1 65.2,250.9 64.8,251.1 64.5L251.9 63.5C252.1 63.2,251.8 63,252 62.5L253 60.5C253.2 60,252.9 59.9,253.1 59.5C253.4 59.1,253.6 58.3,254.5 58C255.4 57.8,257.7 58,258.5 58.1C259.3 58.2,259.1 58.1,259.5 58.6L260.9 61.5C261.2 62.1,261 62.2,261.1 62.5L261.9 63.5C262 63.8,261.6 63.7,262 64.5L264 68.5C264.4 69.3,264 69.2,264.2 69.5C264.3 69.8,264.6 69.8,264.9 70.5L266 73.5C266.2 74.2,265.9 74.2,266 74.5L267 75.5C267.1 75.8,266.9 76.2,267 76.5L267.9 77.5L268 78.5C268.2 78.8,268.3 78.3,268.8 79.5L271 85.5C271.4 86.7,271.1 86.3,271 86.5C270.9 86.7,271.2 86.9,270.5 87ZM299.5 86.8C298.9 87.1,297.2 87,296.5 86.9C295.8 86.9,296.9 88.4,295.3 86.5L287 75.5C285.3 73.3,285.5 74,285.2 73.5C284.8 73,285.2 73.1,284.8 72.5C284.3 71.9,283 70.2,282.5 69.9C282 69.5,282 68.4,281.9 70.5L282 82.5C282 85.2,281.9 85.8,281.7 86.5C281.4 87.2,281.2 86.9,280.5 86.9L277.5 86.9C276.8 86.9,276.6 86.7,276.3 86.5C276.1 86.3,276.1 90,276 85.5L276 59.5C276.1 55,275.8 58.5,276.5 58.3C277.2 58,279.6 58,280.5 58.2C281.4 58.4,281.1 58.6,281.9 59.5L284.8 63.5C285.4 64.3,284.8 64,285.2 64.5C285.5 65,285.6 64.7,287 66.5C288.4 68.3,292.3 74.2,293.5 75.5C294.7 76.8,294.3 77.2,294.4 74.5C294.5 71.8,294.2 62.2,294.3 59.5C294.3 56.8,294.5 58.7,294.7 58.5C294.9 58.3,294.9 58.1,295.5 58L298.5 58.1C299.2 58.2,299.5 58.3,299.8 58.5C300 58.7,300 55,300 59.5L300 85.5C299.9 90.1,300.1 86.6,299.5 86.8ZM320.5 86.7C317.7 87,309.8 87,307.5 86.9C305.2 86.9,307 86.7,306.8 86.5C306.6 86.3,306.4 90,306.3 85.5L306.2 59.5C306.3 55,306.4 58.7,306.7 58.5C306.9 58.3,305.5 58.1,307.5 58.1C309.5 58,316 58,318.5 58.1C321 58.3,321.7 58.9,322.5 59.2C323.3 59.5,323.2 59.8,323.5 60C323.8 60.1,323.8 59.7,324.5 60.1C325.2 60.5,326.6 61.5,327.5 62.4C328.4 63.3,329.4 64.8,329.8 65.5C330.3 66.2,329.8 66,330 66.5C330.2 67,330.8 67.3,331 68.5C331.2 69.7,331.3 72,331.3 73.5C331.2 75,331.1 76.7,330.9 77.5C330.7 78.3,330.2 78.2,330 78.5C329.9 78.8,330.2 79,329.9 79.5L328.6 81.5L327.5 82.7C326.8 83.3,325.7 84.3,324.5 85C323.3 85.7,323.3 86.4,320.5 86.7ZM374.5 86.9C373.8 87,371.3 87.1,370.5 86.8C369.7 86.6,369.9 88.6,369.8 85.5L369.9 68.5C369.9 65.5,370 67,369.5 67.3C369 67.6,367.4 69.8,367 70.5C366.6 71.2,367.4 70.5,366.9 71.5L363.8 76.5C362.9 77.7,362.1 78.6,361.5 79C360.9 79.4,360.8 79.1,360.5 79C360.2 78.9,359.9 78.8,359.5 78.3L358.2 76.5C357.9 76,358.3 76,358 75.5C357.7 75,356.9 74.5,356.2 73.5L354 69.5L353.5 68.8C353.3 68.6,352.7 65.4,352.5 68.2C352.3 71,352.5 82.4,352.4 85.5C352.4 88.6,352.2 86.3,352.1 86.5C351.9 86.7,352.1 86.9,351.5 86.9L348.5 86.9L347.5 86.8C347.3 86.7,347.3 91.1,347.2 86.5L347 59.5C347 54.8,346.6 58.4,347.5 58.2C348.4 57.9,351.1 57.4,352.5 58.1C353.9 58.8,354.9 61.3,355.7 62.5C356.4 63.7,356.7 64.7,357.2 65.5L358.8 67.5C359.2 68,359 68,359.2 68.5L360.5 70.2C360.9 70.6,360.7 71.7,361.5 70.7C362.3 69.8,364 66.2,365 64.5C366.1 62.8,367.4 61.3,367.9 60.5C368.4 59.7,368 59.9,368.2 59.5C368.5 59.1,368.6 58.4,369.5 58.2C370.4 57.9,372.6 58.1,373.5 58.1C374.4 58.2,374.5 58.3,374.8 58.5C375.1 58.7,375 55,375.1 59.5L375.1 85.5C375.1 90,375.1 86.3,374.9 86.5C374.8 86.7,375.2 86.8,374.5 86.9ZM400.5 86.9C399.2 87.1,396.2 87.3,394.5 87.3C392.8 87.3,391.3 87,390.5 86.8C389.7 86.6,389.8 86.2,389.5 86C389.2 85.9,389.1 86.2,388.5 85.8L385.8 83.5L383.1 80.5C382.5 79.7,382.4 79.5,382.1 78.5L381.3 74.5C381.1 73.3,381 72.8,381.1 71.5L382.1 66.5C382.4 65.5,382.7 65.8,382.9 65.5C383.1 65.2,382.7 65.1,383.2 64.5L385.5 61.8L387.5 60.1C388 59.8,388.2 60.1,388.5 59.9L389.5 59C389.8 58.9,390 59.1,390.5 58.9C391 58.8,391.5 58.2,392.5 58.1C393.5 57.9,395.5 58,396.5 58C397.5 58,397.7 57.9,398.5 58.1L401.5 59C402.3 59.4,402.7 59.5,403.5 60.1L406.2 62.5L407.9 64.5C408.2 65,407.8 65.2,408 65.5L409 66.5C409.2 66.8,408.9 67.2,409 67.5L409.8 68.5C409.9 68.8,410 68.2,410 69.5C410 70.8,410.5 74.3,409.9 76.5C409.4 78.7,407.5 81.3,406.8 82.5C406 83.7,405.9 83.5,405.5 83.8C405.1 84.1,405 83.8,404.5 84.2L402.5 86C401.8 86.4,401.8 86.6,400.5 86.9ZM432.5 86.8C431.3 87,429.2 87.3,427.5 87.3C425.8 87.3,423.8 87.1,422.5 86.7C421.2 86.3,420.4 85.6,419.5 84.9C418.6 84.2,417.5 83.1,417.1 82.5C416.7 81.9,417.1 81.8,416.9 81.5L416 80.5C415.8 80.2,416.1 79.8,416 79.5L415.4 78.5C415.2 78,415.1 79.7,415 76.5L415 59.5C415.1 56.5,414.8 58.5,415.5 58.3C416.2 58,418.7 58,419.5 58.1C420.3 58.1,420.3 58.3,420.5 58.5C420.7 58.7,420.8 56.3,420.9 59.5C421 62.7,420.9 74.2,421.1 77.5C421.3 80.8,421.6 79,422 79.5C422.4 80,422.8 80.3,423.5 80.7L426.5 82C427.2 82.2,427 82,427.5 82L429.5 81.7L431.5 80.7C432 80.4,432.2 80.2,432.6 79.5C433 78.8,433.6 80,433.8 76.5C434.1 73,434 61.6,434.1 58.5C434.2 55.4,434.3 58.2,434.5 58.1L435.5 58.1L438.5 58.1C439.1 58.2,438.9 58.3,439.1 58.5C439.3 58.7,439.5 56.8,439.6 59.5L439.5 74.5C439.3 78,439 79.2,438.8 80.5C438.5 81.8,438.3 81.8,437.8 82.5L436 84.5L434.5 85.9C433.9 86.3,433.7 86.5,432.5 86.8ZM468.5 86.9L465.5 86.9L464.5 86.8L464.2 86.5C463.9 86.1,463.6 85.3,463 84.5C462.4 83.7,461.4 83,460.3 81.5L456 75.5C455 74.2,454.6 74,454.2 73.5C453.9 73,454.3 73.1,453.8 72.5C453.4 71.9,452 70.1,451.5 69.8C451 69.5,451.1 67.9,451 70.5L451 85.5C451 88.2,451 86.3,450.7 86.5C450.5 86.7,450.2 86.8,449.5 86.9L446.5 87C445.9 86.9,445.9 86.7,445.7 86.5C445.4 86.3,445.3 90,445.2 85.5L445.2 59.5C445.2 55,445.3 58.7,445.6 58.5C445.8 58.3,445.8 58.1,446.5 58.1C447.2 58,448.8 58,449.5 58.1C450.2 58.3,449.5 57.7,450.5 58.9L455.2 65.5C456.3 66.9,456.5 66.8,457 67.5C457.4 68.2,457.4 68.7,458 69.5L460.8 72.5C461.5 73.3,461.6 74,462 74.5C462.4 75,463.2 75.6,463.5 75.7C463.8 75.9,463.7 78.2,463.7 75.5L463.6 59.5C463.6 56.7,463.7 58.7,463.9 58.5C464 58.3,463.7 58.1,464.5 58.1L468.5 58.2C469.2 58.3,468.7 53.9,468.8 58.5L469 85.5C469 90.2,468.9 86.3,468.9 86.5C468.8 86.7,469.1 86.8,468.5 86.9ZM486.5 86.8C485.8 87.1,483.3 87,482.5 87C481.7 86.9,482 86.7,481.7 86.5C481.5 86.3,481.3 89.2,481.3 85.5C481.2 81.8,481.5 68.1,481.4 64.5C481.2 60.9,481.6 64,480.5 63.8L474.5 63.9C473.4 63.8,474.2 63.7,474 63.5C473.8 63.3,473.5 63.2,473.4 62.5C473.3 61.8,473.3 60.2,473.5 59.5C473.7 58.8,471.2 58.4,474.5 58.2C477.8 57.9,490.2 58.1,493.5 58.1C496.8 58.2,494.3 58.3,494.5 58.6C494.7 58.8,494.9 58.8,495 59.5L494.9 62.5C494.9 63.2,494.7 63.3,494.5 63.5C494.2 63.7,494.7 63.8,493.5 63.9L487.5 63.9C486.4 64,487.1 60.9,487 64.5L487 85.5C486.9 89.2,487.2 86.6,486.5 86.8ZM521.5 86.9C520.7 87,518.4 87.2,517.5 86.9C516.6 86.7,516.6 86.4,516.2 85.5C515.8 84.6,515.3 82.2,514.8 81.5C514.4 80.8,515.6 81.1,513.5 81C511.4 80.9,504.5 80.8,502.5 81C500.5 81.3,501.8 81.6,501.3 82.5C500.8 83.4,500 85.8,499.5 86.5C499 87.3,499.2 86.9,498.5 86.9L495.5 86.9C494.8 86.9,494.4 86.7,494.2 86.5C494 86.3,494 85.8,494.2 85.5L495 84.5C495.1 84.2,494.6 84.7,495 83.5L497.2 77.5C497.7 76.3,497.9 76.8,498 76.5C498.1 76.2,497.9 75.8,498.1 75.5L499 74.5C499.2 74.2,498.9 73.8,499 73.5C499.1 73.2,499.3 73.5,499.7 72.5L501.3 67.5C501.7 66.5,501.9 66.8,502 66.5C502.1 66.2,502 65.8,502.1 65.5L503 64.5C503.2 64.2,502.9 63.8,503.1 63.5L504 62.5C504.1 62.2,503.7 62.2,504 61.5L505.6 58.5C506.1 57.9,505.7 58.1,506.5 58.1C507.3 58,509.7 58,510.5 58.2C511.3 58.5,511.1 58.8,511.5 59.5L512.7 62.5L513.1 64.5C513.4 65,513.8 65.2,514 65.5C514.2 65.8,514 66.2,514.1 66.5L515 67.5L515.1 68.5C515.2 68.8,515.5 68.8,515.8 69.5L516.9 72.5C517.1 73.2,516.5 72.3,517 73.5L520 79.5L522 84.5C522.3 85.7,522.2 86.1,522.2 86.5C522.1 86.9,522.3 86.9,521.5 86.9ZM531.5 86.9L527.5 86.9C526.8 86.9,527.2 91.1,527.1 86.5L527 59.5C527 54.8,527 58.7,527 58.5C527.1 58.3,526.8 58.1,527.5 58L531.5 58.1C532.2 58.2,531.8 53.9,531.9 58.5L532 85.5C532 90.2,532 86.3,531.9 86.5C531.8 86.7,532.2 86.8,531.5 86.9ZM561.5 86.9C560.9 87,559.2 87.1,558.5 86.9C557.8 86.7,558.9 87.7,557.5 86L550.3 76.5C549 74.8,550.5 76.2,550 75.5L547.2 72.5C546.5 71.7,546.4 71.1,546 70.5L544.5 69C544.2 68.8,544.1 66.7,544.1 69.5L544.4 85.5C544.4 88.3,544.3 86.3,544.1 86.5C544 86.7,544.3 86.9,543.5 87L539.5 86.8C538.8 86.8,539.3 91.1,539.2 86.5L538.9 59.5C539 54.8,538.9 58.4,539.5 58.2C540.1 57.9,541.8 58,542.5 58.1C543.2 58.2,542.4 57.1,543.6 58.5L549.7 66.5C550.8 68,549.7 66.8,550.2 67.5C550.7 68.2,551.8 69.1,552.9 70.5C553.9 71.9,555.8 75.1,556.5 75.8C557.2 76.5,556.9 77.2,557 74.5L557 59.5C557 56.8,557 58.7,557.2 58.5C557.5 58.3,557.8 58.2,558.5 58.1L561.5 58.1C562.1 58.1,562.1 58.3,562.3 58.5L562.8 59.5L562.8 60.5L562.8 85.5C562.7 89.8,562.5 86.3,562.3 86.5C562.1 86.7,562.1 86.9,561.5 86.9ZM597.5 86.9C596.5 87.1,594.8 87.2,593.5 87.2L589.5 87L588.5 86.9L586.5 86C585.8 85.7,585.2 85.4,584.5 84.9L582 82.5L581.2 81.5L580.9 80.5C580.7 80.2,580.3 80,580 79.5C579.7 79,579.4 78.5,579.1 77.5L578.6 73.5L578.7 70.5L579.2 67.5C579.4 66.8,579.7 66.8,579.9 66.5C580 66.2,579.9 65.8,580 65.5L581 64.5L582.1 62.5L583.5 61.1C583.9 60.8,584 61,584.5 60.7C585 60.4,585.7 59.6,586.5 59.2C587.3 58.8,587.8 58.3,589.5 58.2C591.2 58,594.7 57.9,596.5 58.2C598.3 58.5,599.4 59.3,600.5 60C601.6 60.7,602.7 61.9,603 62.5C603.3 63.1,602.9 63.3,602.5 63.8L600.5 65.5C600 65.9,599.8 66.1,599.5 66C599.2 65.9,599 65.3,598.5 65C598 64.7,597.3 64.3,596.5 64C595.7 63.7,594.7 63.4,593.5 63.4C592.3 63.4,590.5 63.7,589.5 64C588.5 64.3,588 64.7,587.5 65C587 65.3,586.9 65.4,586.5 66C586.1 66.6,585.3 67.2,585 68.5C584.7 69.8,584.5 72.2,584.5 73.5C584.5 74.8,584.8 75.7,585.1 76.5C585.3 77.3,585.4 77.8,586 78.5C586.6 79.2,587.6 80.2,588.5 80.8C589.4 81.4,590.5 81.8,591.5 82C592.5 82.2,593.5 82.2,594.5 82C595.5 81.8,596.7 81.4,597.5 80.9C598.3 80.5,599 79.8,599.5 79.5C600 79.2,599.9 79,600.5 79.3C601.1 79.6,602.4 81,602.8 81.5C603.3 82,603.3 82.2,603.3 82.5C603.3 82.8,603.4 82.9,602.8 83.5L599.5 86C598.6 86.6,598.5 86.7,597.5 86.9ZM634.5 86.7C634.3 86.9,634.3 87,633.5 87C632.7 87,630.4 87.1,629.5 86.7C628.6 86.3,628.6 85.2,628.3 84.5C628.1 83.8,628.1 83.1,627.8 82.5C627.5 81.9,628.7 81.2,626.5 81C624.3 80.7,616.7 80.7,614.5 80.9C612.3 81.2,613.3 82.1,613.1 82.5C612.8 82.9,613.2 82.8,612.9 83.5C612.7 84.2,611.9 86,611.5 86.5C611.1 87.1,611.2 86.9,610.5 86.9L607.5 86.9C606.8 86.8,606.5 86.7,606.3 86.5C606 86.3,605.9 86.2,606.1 85.5L607.2 82.5C607.6 81.8,607.9 81.8,608 81.5C608.1 81.2,607.9 80.8,608.1 80.5L609 79.5C609.1 79.2,608.7 79.3,609 78.5L610.8 74.5L612.2 70.5C612.6 69.7,612.8 69.8,613 69.5L613.2 68.5L614 67.5C614.1 67.2,613.7 67.5,614 66.5L616 61.5C616.6 60.2,617.3 59.1,617.7 58.5C618.2 57.9,617.7 58.1,618.5 58.1L622.5 58.2C623.2 58.2,622.7 58.3,622.8 58.5L623.1 59.5L624 60.5L624.2 61.5L625 62.5L625.2 63.5C625.3 63.8,625.5 63.8,625.8 64.5L627 67.5C627.2 68.2,626.9 68.2,627.1 68.5L627.9 69.5C628.1 69.8,627.9 70.2,628 70.5C628.1 70.8,628.3 70.5,628.8 71.5L630.9 76.5C631.3 77.5,630.4 76,631.1 77.5C631.8 79,634.4 84,635 85.5C635.5 87,634.7 86.5,634.5 86.7ZM666.5 86.9L663.5 87C662.8 86.9,662.7 86.8,662.5 86.6C662.3 86.4,662.1 88.5,662 85.5L662 68.5C661.9 65.5,661.8 67.3,661.5 67.7C661.2 68,660.4 69.9,660 70.5C659.6 71.1,659.2 71.2,659 71.5C658.8 71.8,659.2 71.8,658.9 72.5L657 75.5C656.3 76.5,655.4 77.9,654.8 78.5C654.2 79.1,653.9 79,653.5 79C653.1 79,652.9 78.6,652.5 78.2L651.1 76.5C650.9 76,651.3 76.2,650.8 75.5C650.3 74.8,649.2 73.8,648.3 72.5C647.5 71.2,646.1 68.4,645.5 67.7C644.9 67,645.1 65.4,645 68.5C644.9 71.6,645.1 83.4,644.8 86.5C644.6 89.6,644.2 86.9,643.5 86.9L640.5 86.9C639.9 86.8,640.1 86.7,640 86.5C639.8 86.3,639.7 89.5,639.6 85.5L639.3 62.5C639.2 58.2,639.2 60.2,639.3 59.5C639.4 58.8,639.7 58.7,639.9 58.5C640.1 58.3,639.7 58.1,640.5 58.1L644.5 58.1C645.3 58.2,645 58.2,645.5 58.8C646 59.3,647 60.4,647.7 61.5L650 65.5C650.5 66.3,650.4 65.7,651 66.5C651.6 67.3,652.8 70.1,653.5 70.6C654.2 71.1,654.7 69.8,655 69.5C655.3 69.2,654.9 69.2,655.3 68.5L657 65.5C657.5 64.8,657.7 65,658 64.5L659 62.5L661.5 58.9C662.1 58.2,661.7 58.3,662.5 58.2L666.5 58.1C667.3 58.1,667.2 58.3,667.4 58.5C667.7 58.7,667.8 55,667.9 59.5L667.9 85.5C667.8 90,667.6 86.3,667.4 86.5C667.1 86.7,667.1 86.8,666.5 86.9ZM679.5 86.9C678.7 87,676.3 87,675.5 86.8C674.7 86.6,674.9 90.1,674.8 85.5L674.7 59.5C674.8 55,674.9 58.7,675.1 58.5C675.4 58.3,674.6 58.2,676.5 58.1L686.5 58.1L688.5 58.3C689.3 58.4,690.5 58.6,691.5 59.1C692.5 59.6,693.8 60.6,694.5 61.3C695.2 62,695.7 63,696 63.5C696.2 64,695.9 64.2,696 64.5C696.1 64.8,696.5 65,696.7 65.5L697 67.5L697 69.5L696.7 70.5L696 71.5C695.9 71.8,696.2 72,696 72.5L694.9 74.5C694.5 75.1,694.3 75.4,693.5 75.9L690.4 77.5C689.6 77.8,690 77.8,688.5 77.9L681.5 78C680.2 78,680.6 77.2,680.5 78.5C680.4 79.7,680.7 84.2,680.6 85.5C680.6 86.8,680.3 86.3,680.2 86.5C680 86.7,680.3 86.9,679.5 86.9ZM64.1 81.5C64.7 81.3,65.3 81.2,66.1 80.5C67 79.8,68.5 78.2,69 77.5C69.5 76.8,68.9 77,69 76.5C69.2 76,69.8 75.5,70 74.5C70.2 73.5,70.2 71.5,70 70.5C69.8 69.5,69.2 69,69 68.5C68.8 68,69.3 68.1,68.8 67.5C68.4 66.9,67.2 65.6,66.5 65C65.8 64.4,65.3 64.2,64.5 64C63.7 63.7,62.7 63.5,61.5 63.6C60.3 63.6,58.5 63.8,57.5 64.2C56.5 64.5,56.2 64.9,55.6 65.5L54.1 67.5C53.8 68,54.1 68,53.9 68.5C53.7 69,53.2 69.5,53 70.5C52.8 71.5,52.8 73.3,53 74.5C53.2 75.7,53.5 76.5,54.1 77.5C54.7 78.5,55.8 79.8,56.7 80.5C57.6 81.2,58.5 81.6,59.5 81.8C60.5 82.1,61.7 82.1,62.5 82C63.3 81.9,63.5 81.7,64.1 81.5ZM321.1 80.5L322.5 79.8L323.8 78.5L325 76.5C325.2 76,325 75.8,325.1 75.5C325.3 75.2,325.7 75.2,325.9 74.5L326 71.5L325.8 70.5L325.1 69.5C325 69.2,325.3 69,325 68.5L323.5 66.3L322.5 65.4L320.5 64.3C320 64.1,320.8 64.1,319.5 64L312.5 63.8C311.3 63.9,312.1 61.7,312 64.5L312 80.5C312.1 83.3,312.1 81.1,312.5 81.3C312.9 81.4,313.3 81.3,314.5 81.3L319.5 81C320.6 80.9,320.6 80.7,321.1 80.5ZM398.4 81.5L401.5 79.9C402.2 79.4,402.6 78.9,402.9 78.5C403.1 78.1,402.9 77.8,403 77.5C403.2 77.2,403.6 77.2,403.8 76.5L404.1 73.5C404.1 72.3,404.2 70.5,404 69.5C403.8 68.5,403.5 68.2,403 67.5L401.1 65.5C400.5 65,400.4 64.7,399.5 64.4C398.6 64.1,396.7 63.7,395.5 63.6C394.3 63.6,393.5 63.7,392.5 64C391.5 64.3,390.5 64.9,389.7 65.5C389 66.1,388.5 66.7,388.1 67.5C387.6 68.3,387.2 69.3,387 70.5C386.8 71.7,386.9 73.3,387 74.5C387.2 75.7,387.8 76.7,388.2 77.5C388.6 78.3,388.9 78.7,389.5 79.3C390.1 79.8,390.7 80.4,391.5 80.9C392.3 81.4,393.5 81.8,394.5 82C395.5 82.2,396.8 82.1,397.5 82C398.2 81.9,397.8 81.8,398.4 81.5ZM687.9 72.5C688.4 72.3,689 72.3,689.5 72C690 71.6,690.7 71.2,690.9 70.5C691.2 69.8,691.1 68.3,691 67.5C691 66.7,691 66,690.8 65.5C690.5 65,690 64.7,689.5 64.4C689 64.2,688.8 64,687.5 63.8L681.5 63.8C680.3 63.8,680.6 62.8,680.5 64.3C680.4 65.7,680.5 71,680.7 72.5C680.8 74,681.2 72.9,681.5 73L682.5 73L686.5 72.9C687.4 72.9,687.4 72.7,687.9 72.5ZM260.8 75.5C260.9 75.3,261.1 74.8,261 74.5C260.9 74.2,260.3 73.8,260.1 73.5C259.9 73.2,260.1 72.8,260 72.5C259.8 72.2,259.6 72.5,259.2 71.5L257.6 66.5C257.1 65.4,256.8 65.2,256.5 65C256.2 64.9,256.2 65.1,256 65.5C255.9 65.9,255.9 66.7,255.7 67.5L254.3 70.5L253.8 72.5C253.6 73,253.1 73,253 73.5C252.9 74,252 75.1,253.2 75.5C254.5 75.9,259.2 75.8,260.5 75.8C261.8 75.8,260.7 75.7,260.8 75.5ZM511.9 75.5C512 75.3,512.2 75.2,512 74.5L510.8 71.5C510.5 70.8,510.5 71.5,510.1 70.5C509.8 69.5,508.9 66,508.5 65.3C508.1 64.6,507.9 65.5,507.5 66.5L505.8 71.5C505.4 72.5,505.1 72.2,505 72.5C504.9 72.8,505.2 73.2,505 73.5C504.8 73.8,504.1 74.2,504 74.5C503.9 74.8,504.2 75.3,504.3 75.5C504.3 75.7,503.3 75.7,504.5 75.7L511.5 75.8C512.7 75.7,511.8 75.7,511.9 75.5ZM624 75.5C624 75.1,624.1 74.2,623.9 73.5C623.7 72.8,623.2 72,623 71.5C622.8 71,623.1 70.8,623 70.5L622 69.5C621.8 69.2,622.1 68.8,622 68.5L621.1 67.5C621 67.2,621.1 66.8,621 66.5C620.9 66.2,620.8 65.5,620.5 65.7C620.2 65.8,619.3 67,619 67.5C618.7 68,619.1 68.2,618.9 68.5C618.8 68.8,618.3 69,618.1 69.5L617.7 71.5L616.6 74.5C616.4 75.2,615.7 75.3,616.8 75.5C618 75.7,622.3 75.8,623.5 75.8C624.7 75.8,623.9 75.9,624 75.5ZM475.5 137.7C434 137.8,270.3 137.8,228.5 137.7C186.7 137.6,225.5 137.2,224.5 136.9C223.5 136.6,223 136.2,222.5 136C222 135.8,221.8 136.1,221.5 136L220.5 135.1C220.2 134.9,219.8 135.2,219.5 135L218.5 134.2C218.2 134,218.7 134.7,217.5 134C216.3 133.3,213.1 131,211.5 129.8C209.9 128.5,208.9 127.4,208.2 126.5C207.4 125.6,207.4 125.2,206.9 124.5C206.4 123.8,205.9 123.8,205.1 122.5C204.3 121.2,202.7 117.8,202.2 116.5C201.6 115.2,202 115,201.8 114.5C201.7 114,201.3 114,201.1 113.5L200.8 111.5C200.7 111,200.4 111.7,200.2 110.5L199.4 104.5C199.2 103.3,199.2 103.7,199 103.5C198.9 103.3,219.9 103.2,198.5 103.1L70.5 102.7C45.3 102.5,52.6 102.3,47.5 102.1C42.4 101.9,38.3 101.7,39.8 101.5C41.3 101.3,45.5 101.1,56.5 101C67.5 100.9,91.3 101.1,105.5 100.9C119.7 100.7,125.3 100.2,141.5 100.1C157.7 99.9,192.3 100,202.5 100.1C212.7 100.2,202.8 100.3,202.9 100.5L203 101.5C203 102.5,202.8 105.2,203 106.5C203.2 107.8,203.7 108.5,203.9 109.5L204.2 112.5C204.4 113.2,204.6 113,204.8 113.5L205.2 115.5L206 117.5C206.5 118.5,207.3 120.2,208.2 121.5C209.2 122.8,210.1 123.9,211.5 125.3L216.5 130C217.5 130.8,216.8 129.8,217.5 130.1L220.5 131.9C221.2 132.2,221.2 131.9,221.5 132.1C221.8 132.2,222 132.6,222.5 132.8L224.5 133.4C225 133.6,224.3 133.8,225.5 134C226.7 134.2,212 134.6,231.5 134.7L342.5 134.7L471.5 134.7C494 134.6,476.3 134.2,477.5 134C478.7 133.8,478.2 133.9,478.5 133.8L479.5 133C479.8 132.9,480.2 133.1,480.5 133C480.8 132.9,480.7 132.6,481.5 132.2C482.3 131.8,484.2 131.3,485.5 130.6C486.8 129.9,488.3 129,489.5 128C490.7 127,491.9 125.7,493 124.5C494 123.3,495.2 121.7,495.8 120.5C496.5 119.3,496.8 118.2,497.1 117.5C497.4 116.8,497.8 116.8,497.9 116.5L498 115.5C498.2 115.2,498.7 115,498.8 114.5L499 112.5L499.9 110.5L500 109.5L500.1 101.5C500.2 100,500.1 100.8,500.3 100.5C500.5 100.2,489 100,501.5 99.9C514 99.9,557.7 99.9,575.5 100.1C593.3 100.3,596.2 100.8,608.5 101C620.8 101.1,641.2 100.9,649.5 101C657.8 101.1,658.5 101.3,658.2 101.5C657.9 101.7,656.6 101.9,647.5 102.1C638.4 102.3,627.3 102.8,603.5 102.9C579.7 103.1,521.1 103,504.5 103.1C487.9 103.2,504.1 103.3,503.9 103.5C503.7 103.7,503.6 103.2,503.4 104.5L502.9 111.5C502.6 113.3,502.2 114.7,501.9 115.5C501.6 116.3,501.3 116.2,501.1 116.5L501 117.5L500.3 118.5L500 119.5L499.1 120.5C498.9 120.8,499.3 120.8,498.9 121.5C498.6 122.2,497.9 123.3,497 124.5C496.1 125.7,494.9 127.2,493.5 128.5C492 129.8,490 131.5,488.5 132.6C487 133.6,486 134,484.5 134.7L479.5 136.9C478.3 137.3,478.2 136.9,477.5 137.1C476.8 137.2,517 137.6,475.5 137.7ZM228.5 128.8C228.2 129,227.8 128.8,227.5 128.6C227.2 128.3,227 131.2,226.9 127.5L226.9 106.5C227 102.9,225.1 106.1,227.5 106L241.5 106C244 106.1,242.3 106.2,242.5 106.4C242.7 106.7,242.7 107.2,242.6 107.5C242.4 107.8,243.5 107.9,241.5 108L230.5 108C228.5 108.1,229.7 107.3,229.5 108.5C229.3 109.7,229.2 114.2,229.4 115.5C229.6 116.8,228.7 116.2,230.5 116.4C232.3 116.5,238.6 116.2,240.5 116.4C242.4 116.6,241.8 117.1,241.8 117.5C241.8 117.9,242.4 118.6,240.5 118.8C238.6 119.1,232.3 118.8,230.5 118.9C228.7 118.9,229.7 119.1,229.5 119.3C229.3 119.4,229.3 118.1,229.3 119.5C229.2 120.9,229.5 125.9,229.4 127.5C229.2 129.1,228.8 128.6,228.5 128.8ZM251.5 128.8C251.2 128.9,250.8 128.8,250.5 128.6C250.2 128.4,249.9 131,249.8 127.5L249.8 107.5L249.9 106.5C250 106.3,250.2 106.1,250.5 106L251.5 106C251.8 106.1,252 106.3,252.2 106.5C252.3 106.7,252.3 104,252.3 107.5C252.3 111,252.4 124,252.2 127.5C252.1 131,251.8 128.6,251.5 128.8ZM268.5 128.9C268.2 128.9,267.7 128.7,267.5 128.5C267.3 128.2,267.1 130.8,267 127.5L267 108.5C266.9 105.3,267.6 108.1,266.5 108L260.5 108C259.4 107.9,260 107.7,259.9 107.5L260 106.5C260.1 106.3,257.7 106.1,260.5 106L276.5 106C279.4 106.1,277.4 106.3,277.6 106.5C277.8 106.7,277.8 107.3,277.8 107.5C277.8 107.7,278.7 107.7,277.5 107.8L270.5 108C269.2 108.1,270 105.3,269.9 108.5L269.9 127.5C269.8 130.8,269.7 128,269.5 128.3C269.3 128.5,268.8 128.8,268.5 128.9ZM296.5 128.8C296.2 128.7,295.7 128.3,295.5 128.1C295.3 127.9,295.2 131.1,295.1 127.5L295.1 106.5C295.2 102.9,295.3 106.2,295.5 106.1C295.7 106,294 106,296.5 106L310.5 106C312.9 106.1,311 106.3,311.1 106.5L311 107.5C310.9 107.7,312.6 107.9,310.5 108L298.5 108C296.4 108.1,298.1 107.3,298 108.5L298 115.5C298.1 116.8,296.8 116.2,298.5 116.3C300.2 116.4,306.7 116.2,308.5 116.2C310.3 116.2,309.2 116.2,309.5 116.4C309.8 116.6,310 117.1,310 117.5C310 117.9,309.8 118.3,309.5 118.6C309.2 118.8,310.3 118.8,308.5 118.9L298.5 118.8C296.8 118.9,298.1 118,298 119.5L298 127.5C297.9 129,297.7 128.2,297.5 128.4C297.3 128.6,296.8 128.8,296.5 128.8ZM331.5 128.8C330.2 129,327.8 129,326.5 128.8C325.2 128.7,324.3 128.3,323.5 128C322.7 127.7,322.4 127.7,321.5 126.9C320.6 126.2,318.9 124.6,318.2 123.5C317.5 122.4,317.4 121.8,317.2 120.5C317 119.2,316.8 117,317 115.5C317.2 114,317.8 112.4,318.2 111.5C318.6 110.6,318.8 110.6,319.5 109.8L322.5 107.1C323.2 106.7,323.2 107.1,323.5 107C323.8 106.9,323.7 106.4,324.5 106.3L328.5 105.9L331.5 106L332.5 106.1L333.5 107C333.8 107.1,333.8 106.6,334.5 107.1L337.5 109.7C338.2 110.4,338.4 110.7,338.8 111.5C339.2 112.3,339.8 113,340 114.5C340.1 116,340 119.3,339.9 120.5C339.8 121.7,339.4 121,339.2 121.5C339 122,339.5 122.5,338.8 123.5C338 124.5,335.7 126.9,334.5 127.7C333.3 128.6,332.8 128.6,331.5 128.8ZM364.5 128.8C364.2 128.9,363.8 128.9,363.5 128.8C363.2 128.7,363.2 128.9,362.5 128L359.1 123.5C358.3 122.4,358.3 121.9,358 121.5L357.5 121C357.3 120.9,357.7 120.9,356.5 120.9L350.5 120.8C349.4 120.9,350.1 120.4,350 121.5L350 127.5C350 128.7,350 128.3,349.8 128.5C349.5 128.7,348.9 128.8,348.5 128.8C348.1 128.8,347.7 128.5,347.5 128.3C347.3 128.1,347.2 129,347.1 127.5L347 119.5L347.1 106.5C347.2 104.3,345.3 106.1,347.5 106.1C349.7 106,358.2 106,360.5 106.2C362.8 106.3,361.2 106.8,361.5 107C361.8 107.2,362 106.8,362.5 107.3C363 107.7,364.2 108.5,364.7 109.5C365.2 110.5,365.6 112.3,365.6 113.5C365.6 114.7,365.3 115.7,365 116.5C364.6 117.3,364.2 117.8,363.5 118.5C362.7 119.2,360.7 119.8,360.4 120.5C360.1 121.2,361.5 122,361.7 122.5C362 123,361.6 123,362 123.5L363.9 125.5L365.3 127.5C365.4 128,365.2 128.3,365.1 128.5C365 128.7,364.8 128.8,364.5 128.8ZM398.5 128.8L385.5 128.8C383.1 128.8,384.5 128.7,384.2 128.5C384 128.3,384 131.2,384 127.5L384 106.5C384.1 102.9,384.1 106.1,384.5 106L386.5 106.2C386.9 106.3,386.7 103.3,386.8 106.5L386.8 125.5C386.9 128.8,385.5 126.1,387.5 126.2L398.5 126.2C400.4 126.2,398.8 126.3,398.8 126.5L399 127.5L398.8 128.5C398.8 128.7,400.7 128.8,398.5 128.8ZM418.5 128.7C417 129.1,415 129.1,413.5 128.9C412 128.8,410.9 128.6,409.5 127.7C408.1 126.8,406.1 124.7,405.2 123.5C404.3 122.3,404.2 122,404 120.5C403.8 119,403.9 115.8,404 114.5C404.1 113.2,404 113.4,404.5 112.5C404.9 111.6,405.8 110.1,406.5 109.3C407.2 108.5,408.2 107.9,408.7 107.5L409.5 107C409.8 106.9,410.2 107.1,410.5 106.9C410.8 106.8,410.7 106.2,411.5 106C412.3 105.9,414.3 105.8,415.5 105.8C416.7 105.8,417.7 105.8,418.5 106C419.3 106.2,420 106.8,420.5 107C421 107.2,420.9 106.7,421.5 107.2C422.1 107.6,423.4 108.6,424.2 109.5C424.9 110.4,425.7 111.8,426 112.5C426.3 113.2,425.9 113,426 113.5C426.2 114,426.7 114.7,426.9 115.5C427.1 116.3,427 117.8,427 118.5L426.9 119.5C426.7 119.8,426.3 120,426.2 120.5L425.9 122.5C425.6 123.2,425.4 123.8,424.8 124.5C424.3 125.2,423.6 126.2,422.5 126.9C421.4 127.6,420 128.4,418.5 128.7ZM442.5 128.8C442.1 129,441.8 128.9,441.5 128.8L440.5 128.1L440 127.5C439.9 127.2,440.1 126.8,439.9 126.5L439 125.5L438.8 124.5C438.6 124.2,438.4 124.3,438 123.5L436.3 119.5C436 118.5,436.8 119.5,435.9 117.5L431.3 107.5C430.5 105.7,431 106.7,431 106.5C431 106.3,431.1 106.1,431.5 106L433.5 106.2C433.9 106.3,433.6 106.1,433.8 106.5L434.7 108.5L435.1 110.5C435.3 111,435.8 111.2,436 111.5C436.1 111.8,435.9 112.2,436 112.5L436.9 113.5C437.1 113.8,436.9 114.2,437 114.5C437.2 114.8,437.5 114.7,437.8 115.5L439.2 119.5C439.5 120.3,439.8 120.2,439.9 120.5C440.1 120.8,439.9 121.2,440 121.5L440.8 122.5C441.1 123,441.2 124.2,441.5 124.5C441.8 124.8,442.3 124.3,442.5 124.2L443 123.5C443.1 123.2,442.9 122.8,443.1 122.5L443.9 121.5C444.1 121.2,443.9 120.8,444 120.5C444.2 120.2,444.6 120,444.8 119.5C445 119,444.7 119,445.3 117.5L448.6 110.5L450.2 106.5C450.5 105.8,450.3 106.2,450.5 106.2L451.5 106L452.5 106.1C452.7 106.2,453.4 105.1,452.9 106.5L449.7 114.5C449.1 116,449.3 114.8,449 115.5C448.7 116.2,448.8 116.7,447.9 118.5L444 126.5C443.3 128,444.2 127.1,443.9 127.5L442.5 128.8ZM474.5 128.7C472 128.8,463 128.9,460.5 128.8C458 128.6,459.7 130.2,459.5 127.8C459.3 125.4,459.3 118.1,459.3 114.5C459.3 110.9,459.3 107.9,459.5 106.4C459.7 105,458 106.1,460.5 106L474.5 106C476.9 106.1,475 106.3,475.1 106.5L475.1 107.5C475 107.7,476.6 107.9,474.5 108L462.5 108C460.4 108.1,462.1 108.3,462 108.5L462 109.5L462 115.5C462.1 116.6,460.6 115.9,462.5 116L473.5 116C475.4 116.1,473.9 116.3,474 116.5L474 117.5C473.9 117.7,475.4 117.8,473.5 118L462.5 118.1C460.6 118.2,462.2 118.3,462.1 118.5L462 119.5L462 125.5C462.1 126.6,462.3 126,462.5 126.1C462.7 126.2,461.5 126.1,463.5 126.1L474.5 126.1C476.5 126.2,475.3 126.3,475.5 126.5C475.7 126.8,476 127.2,476 127.5C476 127.8,475.7 128.1,475.5 128.3C475.3 128.5,477 128.6,474.5 128.7ZM332.8 125.5C333.3 125.2,334 124.9,334.5 124.4L336 122.5C336.4 121.8,336.8 121.5,337 120.5C337.2 119.5,337.2 117.7,337.1 116.5C337.1 115.3,336.9 114.3,336.7 113.5C336.4 112.7,336.1 112.1,335.8 111.5C335.4 110.9,335 110.6,334.5 110.2L332.5 109C331.7 108.6,330.5 108.1,329.5 108C328.5 107.9,327.7 107.7,326.5 108.1C325.3 108.5,323.4 109.7,322.5 110.3C321.6 110.8,321.5 110.8,321.1 111.5C320.7 112.2,320.2 113,320 114.5C319.8 116,319.8 119.1,320.1 120.5C320.3 121.9,320.8 122.3,321.5 123.2C322.2 124,323.3 125.3,324.5 125.8C325.7 126.3,327.3 126.3,328.5 126.4C329.7 126.4,330.8 126.2,331.5 126C332.2 125.9,332.3 125.8,332.8 125.5ZM360.4 117.5C360.8 117.3,361.6 117,362 116.5C362.4 116,362.8 115.3,362.9 114.5C363 113.7,363 112.3,362.7 111.5C362.4 110.7,361.8 110.1,361.1 109.5C360.4 108.9,359.1 108.4,358.5 108.1C357.9 107.9,358.8 108,357.5 108L350.5 108C349.3 108.1,350.1 106.9,350 108.5L350 117.5C350.1 119.1,349.3 118.1,350.5 118.2L357.5 118.2C359 118.2,359 118.1,359.5 118C360 117.9,360 117.7,360.4 117.5ZM419.8 125.5C420.5 124.9,422.3 123.3,422.9 122.5C423.6 121.7,423.5 121,423.7 120.5C423.8 120,424 120.5,424 119.5C424 118.5,424 115.8,423.8 114.5C423.5 113.2,422.9 112.3,422.5 111.7C422.1 111,422 110.8,421.5 110.4L419.5 109C419 108.7,418.8 109,418.5 108.8C418.2 108.7,418.3 108.3,417.5 108.1C416.7 108,414.8 107.7,413.5 108C412.2 108.3,410.5 109.3,409.5 110C408.5 110.8,407.8 111.4,407.3 112.5C406.8 113.6,406.6 115,406.5 116.5C406.5 118,406.9 120.3,407.2 121.5C407.5 122.7,407.8 122.9,408.5 123.6C409.2 124.3,410.3 125.4,411.5 125.8C412.7 126.3,414.3 126.3,415.5 126.3C416.7 126.4,417.8 126.1,418.5 126C419.2 125.9,419 126.1,419.8 125.5ZM193.5 121.5C193 121,191.8 118.5,191.3 117.5C190.8 116.5,191 116.2,190.7 115.5C190.4 114.8,189.9 113.9,189.6 113.5C189.2 113.1,193.7 113.2,188.5 113.1L158.5 112.8C152.5 112.7,158.8 112.5,152.5 112.3C146.2 112.1,128 111.9,120.5 111.6C113 111.3,106.9 110.8,107.4 110.5C107.9 110.2,109.5 110.1,123.5 110L191.5 110C203 110.1,192.1 110.1,192.3 110.5L192.7 112.5L193.2 117.5C193.4 118.5,193.7 118,193.9 118.5C194.1 119,194.4 120,194.3 120.5C194.3 121,194 122,193.5 121.5ZM507.5 125.2C506.9 125.9,507.1 124.8,507 124.5C507 124.2,506.9 124.2,507.2 123.5C507.5 122.8,508.4 122.3,509 120.5C509.6 118.7,510.6 114.2,510.9 112.5C511.3 110.8,510.9 110.9,511 110.5C511.1 110.1,499.9 110,511.5 109.9L580.5 110C593.7 110.1,590.6 110.2,590.8 110.5C591 110.8,586.5 111.5,581.5 111.7C576.5 112,566.7 111.9,560.5 112.1C554.3 112.3,552.3 112.8,544.5 113C536.7 113.2,519.1 112,513.5 113.3C507.9 114.5,511.8 118.5,510.8 120.5C509.8 122.5,508.1 124.5,507.5 125.2Z"/></svg>
